<svg width="156" height="16" viewBox="0 0 156 16" fill="none" xmlns="http://www.w3.org/2000/svg">
<mask id="mask0_201_38" style="mask-type:luminance" maskUnits="userSpaceOnUse" x="1" y="0" width="13" height="15">
<path d="M13.94 0.667H1.614V14.889H13.94V0.667Z" fill="white"/>
</mask>
<g mask="url(#mask0_201_38)">
<mask id="mask1_201_38" style="mask-type:alpha" maskUnits="userSpaceOnUse" x="1" y="0" width="13" height="15">
<path d="M13.052 0.793C13.1255 0.744015 13.2112 0.716531 13.2994 0.713646C13.3877 0.710761 13.475 0.732591 13.5515 0.776673C13.6281 0.820755 13.6907 0.885337 13.7325 0.963137C13.7743 1.04094 13.7935 1.12886 13.788 1.217L12.933 14.552C12.9281 14.6242 12.9013 14.6932 12.8561 14.7498C12.811 14.8064 12.7497 14.8478 12.6804 14.8687C12.6111 14.8895 12.5371 14.8888 12.4682 14.8665C12.3994 14.8442 12.3389 14.8015 12.295 14.744L8.578 9.851C8.53042 9.78821 8.4708 9.73554 8.40264 9.69605C8.33448 9.65656 8.25913 9.63105 8.18099 9.621L2.085 8.85C2.01334 8.84061 1.94625 8.80964 1.89262 8.7612C1.83899 8.71276 1.80138 8.64915 1.78477 8.57882C1.76817 8.50849 1.77336 8.43478 1.79965 8.36747C1.82595 8.30016 1.87211 8.24245 1.932 8.202L13.052 0.793Z" fill="#D9D9D9"/>
</mask>
<g mask="url(#mask1_201_38)">
<path d="M1.02299 8.73L13.851 0.261L8.389 9.721L1.02299 8.731" fill="url(#paint0_linear_201_38)"/>
<path d="M12.93 15.604L13.851 0.261L8.39 9.721L12.93 15.604Z" fill="url(#paint1_linear_201_38)"/>
</g>
</g>
<mask id="mask2_201_38" style="mask-type:luminance" maskUnits="userSpaceOnUse" x="29" y="0" width="13" height="15">
<path d="M41.94 0.667H29.614V14.889H41.94V0.667Z" fill="white"/>
</mask>
<g mask="url(#mask2_201_38)">
<mask id="mask3_201_38" style="mask-type:alpha" maskUnits="userSpaceOnUse" x="29" y="0" width="13" height="15">
<path d="M41.052 0.793C41.1255 0.744015 41.2112 0.716531 41.2994 0.713646C41.3877 0.710761 41.475 0.732591 41.5515 0.776673C41.6281 0.820755 41.6907 0.885337 41.7325 0.963137C41.7743 1.04094 41.7935 1.12886 41.788 1.217L40.933 14.552C40.9281 14.6242 40.9013 14.6932 40.8561 14.7498C40.811 14.8064 40.7497 14.8478 40.6804 14.8687C40.6111 14.8895 40.5371 14.8888 40.4682 14.8665C40.3994 14.8442 40.339 14.8015 40.295 14.744L36.578 9.851C36.5304 9.78821 36.4708 9.73554 36.4026 9.69605C36.3345 9.65656 36.2591 9.63105 36.181 9.621L30.085 8.85C30.0133 8.84061 29.9463 8.80964 29.8926 8.7612C29.839 8.71276 29.8014 8.64915 29.7848 8.57882C29.7682 8.50849 29.7734 8.43478 29.7997 8.36747C29.826 8.30016 29.8721 8.24245 29.932 8.202L41.052 0.793Z" fill="#D9D9D9"/>
</mask>
<g mask="url(#mask3_201_38)">
<path d="M29.023 8.73L41.851 0.261L36.389 9.721L29.023 8.731" fill="url(#paint2_linear_201_38)"/>
<path d="M40.93 15.604L41.851 0.261L36.39 9.721L40.93 15.604Z" fill="url(#paint3_linear_201_38)"/>
</g>
</g>
<path d="M70.505 2.515L67.622 1.127C67.4592 1.0485 67.276 1.02259 67.0978 1.05287C66.9196 1.08316 66.7552 1.16812 66.6275 1.296L57.19 9.9C57.0755 10.0039 57.007 10.149 56.9995 10.3035C56.9919 10.4579 57.0461 10.609 57.15 10.7235C57.1625 10.737 57.175 10.75 57.1885 10.762L57.959 11.462C58.0597 11.5536 58.1893 11.6071 58.3253 11.6131C58.4613 11.6192 58.5951 11.5774 58.7035 11.495L70.071 2.875C70.1569 2.80985 70.2592 2.76995 70.3665 2.75981C70.4738 2.74966 70.5818 2.76967 70.6784 2.81759C70.7749 2.8655 70.8562 2.93941 70.913 3.031C70.9698 3.12258 71 3.22822 71 3.336V3.3025C71 3.13795 70.9535 2.97675 70.866 2.83743C70.7784 2.69812 70.6533 2.58635 70.505 2.515Z" fill="#24BFA5"/>
<path d="M70.505 13.485L67.622 14.8735C67.4591 14.9518 67.276 14.9776 67.0978 14.9473C66.9197 14.917 66.7554 14.8322 66.6275 14.7045L57.19 6.1C57.0755 5.9961 57.007 5.85097 56.9995 5.69653C56.9919 5.5421 57.0461 5.39101 57.15 5.2765C57.1625 5.263 57.175 5.25 57.1885 5.238L57.959 4.538C58.0598 4.44598 58.1897 4.39227 58.326 4.38624C58.4624 4.38021 58.5965 4.42224 58.705 4.505L70.071 13.125C70.1569 13.1902 70.2592 13.23 70.3665 13.2402C70.4738 13.2503 70.5818 13.2303 70.6784 13.1824C70.7749 13.1345 70.8562 13.0606 70.913 12.969C70.9698 12.8774 71 12.7718 71 12.664V12.7C70.9995 12.8641 70.9528 13.0248 70.8652 13.1636C70.7777 13.3024 70.6529 13.4138 70.505 13.485Z" fill="#009A7C"/>
<path d="M67.622 14.8735C67.4591 14.9518 67.276 14.9776 67.0979 14.9473C66.9197 14.917 66.7554 14.8322 66.6275 14.7045C66.6993 14.7754 66.7904 14.8235 66.8894 14.8428C66.9885 14.8621 67.091 14.8517 67.1841 14.813C67.2773 14.7743 67.357 14.709 67.4132 14.6252C67.4693 14.5414 67.4996 14.4429 67.5 14.342V1.658C67.5001 1.55664 67.4701 1.45754 67.4138 1.37325C67.3575 1.28896 67.2775 1.22327 67.1838 1.18451C67.0902 1.14574 66.9871 1.13564 66.8877 1.15549C66.7883 1.17534 66.6971 1.22424 66.6255 1.296C66.7533 1.16817 66.9176 1.0832 67.0957 1.05283C67.2739 1.02247 67.4571 1.04821 67.62 1.1265L70.5025 2.5125C70.6512 2.5835 70.7769 2.69511 70.8649 2.83445C70.9529 2.97379 70.9998 3.13518 71 3.3V12.7C71 12.8647 70.9535 13.026 70.8659 13.1655C70.7782 13.3049 70.6529 13.4167 70.5045 13.488L67.622 14.8735Z" fill="#00B294"/>
<g clip-path="url(#clip0_201_38)">
<path d="M119.722 0.36384C119.265 0.6568 119.133 1.26368 119.427 1.71872C121.045 4.22352 121.427 6.1128 121.261 7.76848C120.592 10.939 119.136 11.5822 117.865 11.5822C116.623 11.5822 116.956 9.53888 117.889 8.9408C118.446 8.59296 119.16 8.36688 119.707 8.36688C120.25 8.36688 120.69 7.92832 120.69 7.3872C120.69 6.84592 120.25 6.40736 119.707 6.40736C119.068 6.40736 118.44 6.54176 117.854 6.77056C117.974 6.20592 118.018 5.59568 117.863 4.94704C117.629 3.96208 116.952 3.02128 115.778 2.10928C115.573 1.94928 115.312 1.87744 115.053 1.90944C114.794 1.94144 114.559 2.07456 114.399 2.27968C114.066 2.70688 114.143 3.32256 114.571 3.65488C115.528 4.39776 115.844 4.94768 115.952 5.40032C116.06 5.85296 115.973 6.33856 115.756 7.00576C115.479 7.90496 115.157 8.70768 115.016 9.47744C114.946 9.85632 114.94 10.2686 114.922 10.5981C114.234 9.92672 113.964 9.04032 113.964 7.74512C113.964 7.204 113.524 6.76528 112.981 6.76544C112.439 6.76592 112 7.20432 111.999 7.74512C111.999 9.51408 112.517 11.1973 113.903 12.3202C115.158 13.5158 118.35 13.0739 118.35 14.9934C118.35 15.5352 119.143 15.7989 119.685 15.7989C120.242 15.7989 120.942 15.4269 120.942 14.9934C120.942 12.8155 123.237 11.4918 127.016 11.4976C127.558 11.4984 127.999 11.0602 127.999 10.519C128 9.97776 127.561 9.53824 127.019 9.53728C126.76 9.53696 126.508 9.54576 126.26 9.56048C126.682 8.56704 126.87 7.47328 126.831 6.29184C126.813 5.75088 126.359 5.32688 125.817 5.34448C125.274 5.36208 124.849 5.81536 124.866 6.35664C124.918 7.90352 124.86 9.2848 123.707 10.013C123.38 10.2198 122.999 10.3994 122.637 10.3994C122.918 9.63648 123.13 8.8312 123.216 7.9632C123.272 7.40928 123.278 6.7512 123.214 6.24C123.116 5.448 122.998 4.54976 123.299 3.87312C123.569 3.2904 124.174 3.0464 125.062 3.0464C125.605 3.04592 126.044 2.60736 126.044 2.06672C126.044 1.52544 125.605 1.0864 125.062 1.08592C123.742 1.08592 122.741 1.7808 122.174 2.62032C121.877 1.98672 121.516 1.33376 121.079 0.65792C120.938 0.43952 120.716 0.28608 120.462 0.23088C120.336 0.20352 120.206 0.20112 120.078 0.22384C119.951 0.24672 119.83 0.29424 119.722 0.36384Z" fill="url(#paint4_linear_201_38)"/>
</g>
<g clip-path="url(#clip1_201_38)">
<path d="M147.722 0.36384C147.265 0.6568 147.133 1.26368 147.427 1.71872C149.045 4.22352 149.427 6.1128 149.261 7.76848C148.592 10.939 147.136 11.5822 145.865 11.5822C144.623 11.5822 144.956 9.53888 145.889 8.9408C146.446 8.59296 147.16 8.36688 147.707 8.36688C148.25 8.36688 148.69 7.92832 148.69 7.3872C148.69 6.84592 148.25 6.40736 147.707 6.40736C147.068 6.40736 146.44 6.54176 145.854 6.77056C145.974 6.20592 146.018 5.59568 145.863 4.94704C145.629 3.96208 144.952 3.02128 143.778 2.10928C143.573 1.94928 143.312 1.87744 143.053 1.90944C142.794 1.94144 142.559 2.07456 142.399 2.27968C142.066 2.70688 142.143 3.32256 142.571 3.65488C143.528 4.39776 143.844 4.94768 143.952 5.40032C144.06 5.85296 143.973 6.33856 143.756 7.00576C143.479 7.90496 143.157 8.70768 143.016 9.47744C142.946 9.85632 142.94 10.2686 142.922 10.5981C142.234 9.92672 141.964 9.04032 141.964 7.74512C141.964 7.204 141.524 6.76528 140.981 6.76544C140.439 6.76592 140 7.20432 139.999 7.74512C139.999 9.51408 140.517 11.1973 141.903 12.3202C143.158 13.5158 146.35 13.0739 146.35 14.9934C146.35 15.5352 147.143 15.7989 147.685 15.7989C148.242 15.7989 148.942 15.4269 148.942 14.9934C148.942 12.8155 151.237 11.4918 155.016 11.4976C155.558 11.4984 155.999 11.0602 155.999 10.519C156 9.97776 155.561 9.53824 155.019 9.53728C154.76 9.53696 154.508 9.54576 154.26 9.56048C154.682 8.56704 154.87 7.47328 154.831 6.29184C154.813 5.75088 154.359 5.32688 153.817 5.34448C153.274 5.36208 152.849 5.81536 152.866 6.35664C152.918 7.90352 152.86 9.2848 151.707 10.013C151.38 10.2198 150.999 10.3994 150.637 10.3994C150.918 9.63648 151.13 8.8312 151.216 7.9632C151.272 7.40928 151.278 6.7512 151.214 6.24C151.116 5.448 150.998 4.54976 151.299 3.87312C151.569 3.2904 152.174 3.0464 153.062 3.0464C153.605 3.04592 154.044 2.60736 154.044 2.06672C154.044 1.52544 153.605 1.0864 153.062 1.08592C151.742 1.08592 150.741 1.7808 150.174 2.62032C149.877 1.98672 149.516 1.33376 149.079 0.65792C148.938 0.43952 148.716 0.28608 148.462 0.23088C148.336 0.20352 148.206 0.20112 148.078 0.22384C147.951 0.24672 147.83 0.29424 147.722 0.36384Z" fill="url(#paint5_linear_201_38)"/>
</g>
<path d="M98.505 2.515L95.622 1.127C95.4592 1.0485 95.276 1.02259 95.0978 1.05287C94.9196 1.08316 94.7552 1.16812 94.6275 1.296L85.19 9.9C85.0755 10.0039 85.007 10.149 84.9995 10.3035C84.992 10.4579 85.0461 10.609 85.15 10.7235C85.1625 10.737 85.175 10.75 85.1885 10.762L85.959 11.462C86.0597 11.5536 86.1893 11.6071 86.3253 11.6131C86.4613 11.6192 86.5951 11.5774 86.7035 11.495L98.071 2.875C98.1569 2.80985 98.2592 2.76995 98.3665 2.75981C98.4738 2.74966 98.5818 2.76967 98.6784 2.81759C98.7749 2.8655 98.8562 2.93941 98.913 3.031C98.9698 3.12258 99 3.22822 99 3.336V3.3025C99 3.13795 98.9535 2.97675 98.866 2.83743C98.7784 2.69812 98.6533 2.58635 98.505 2.515Z" fill="#0065A9"/>
<path d="M98.505 13.485L95.622 14.8735C95.4591 14.9518 95.276 14.9776 95.0979 14.9473C94.9197 14.917 94.7554 14.8322 94.6275 14.7045L85.19 6.1C85.0755 5.9961 85.007 5.85097 84.9995 5.69653C84.992 5.5421 85.0461 5.39101 85.15 5.2765C85.1625 5.263 85.175 5.25 85.1885 5.238L85.959 4.538C86.0598 4.44598 86.1897 4.39227 86.326 4.38624C86.4624 4.38021 86.5965 4.42224 86.705 4.505L98.071 13.125C98.1569 13.1902 98.2592 13.23 98.3665 13.2402C98.4738 13.2503 98.5818 13.2303 98.6784 13.1824C98.7749 13.1345 98.8562 13.0606 98.913 12.969C98.9698 12.8774 99 12.7718 99 12.664V12.7C98.9995 12.8641 98.9528 13.0248 98.8652 13.1636C98.7777 13.3024 98.6529 13.4138 98.505 13.485Z" fill="#007ACC"/>
<path d="M95.622 14.8735C95.4591 14.9518 95.276 14.9776 95.0979 14.9473C94.9197 14.917 94.7554 14.8322 94.6275 14.7045C94.6993 14.7754 94.7904 14.8235 94.8894 14.8428C94.9885 14.8621 95.091 14.8517 95.1841 14.813C95.2773 14.7743 95.357 14.709 95.4132 14.6252C95.4693 14.5414 95.4996 14.4429 95.5 14.342V1.658C95.5001 1.55664 95.4701 1.45754 95.4138 1.37325C95.3575 1.28896 95.2775 1.22327 95.1838 1.18451C95.0902 1.14574 94.9871 1.13564 94.8877 1.15549C94.7883 1.17534 94.6971 1.22424 94.6255 1.296C94.7533 1.16817 94.9176 1.0832 95.0957 1.05283C95.2739 1.02247 95.4571 1.04821 95.62 1.1265L98.5025 2.5125C98.6512 2.5835 98.7769 2.69511 98.8649 2.83445C98.9529 2.97379 98.9998 3.13518 99 3.3V12.7C99 12.8647 98.9535 13.026 98.8659 13.1655C98.7782 13.3049 98.6529 13.4167 98.5045 13.488L95.622 14.8735Z" fill="#1F9CF0"/>
<defs>
<linearGradient id="paint0_linear_201_38" x1="7.437" y1="0.261" x2="7.437" y2="9.721" gradientUnits="userSpaceOnUse">
<stop stop-color="white"/>
<stop offset="1" stop-color="white" stop-opacity="0.4"/>
</linearGradient>
<linearGradient id="paint1_linear_201_38" x1="11.12" y1="0.261" x2="11.12" y2="15.604" gradientUnits="userSpaceOnUse">
<stop stop-color="white" stop-opacity="0.4"/>
<stop offset="1" stop-color="white"/>
</linearGradient>
<linearGradient id="paint2_linear_201_38" x1="35.437" y1="0.261" x2="35.437" y2="9.721" gradientUnits="userSpaceOnUse">
<stop stop-color="#111010"/>
<stop offset="0.0001"/>
<stop offset="1" stop-color="#1D1C1C" stop-opacity="0.87"/>
</linearGradient>
<linearGradient id="paint3_linear_201_38" x1="39.1205" y1="0.261" x2="39.1205" y2="15.604" gradientUnits="userSpaceOnUse">
<stop stop-color="#1A1A1A"/>
<stop offset="1"/>
</linearGradient>
<linearGradient id="paint4_linear_201_38" x1="111.999" y1="0.20832" x2="127.466" y2="15.1317" gradientUnits="userSpaceOnUse">
<stop stop-color="#62A0EA"/>
<stop offset="1" stop-color="#1A5FB4"/>
</linearGradient>
<linearGradient id="paint5_linear_201_38" x1="139.999" y1="0.20832" x2="155.466" y2="15.1317" gradientUnits="userSpaceOnUse">
<stop stop-color="#009A7C"/>
<stop offset="1" stop-color="#24BFA5"/>
</linearGradient>
<clipPath id="clip0_201_38">
<rect width="16" height="16" fill="white" transform="translate(112)"/>
</clipPath>
<clipPath id="clip1_201_38">
<rect width="16" height="16" fill="white" transform="translate(140)"/>
</clipPath>
</defs>
</svg>
