<svg width="536" height="64" viewBox="0 0 536 64" fill="none" xmlns="http://www.w3.org/2000/svg">
<mask id="mask0_202_39" style="mask-type:luminance" maskUnits="userSpaceOnUse" x="18" y="2" width="50" height="58">
<path d="M67.76 2.668H18.456V59.556H67.76V2.668Z" fill="white"/>
</mask>
<g mask="url(#mask0_202_39)">
<mask id="mask1_202_39" style="mask-type:alpha" maskUnits="userSpaceOnUse" x="19" y="2" width="49" height="58">
<path d="M64.208 3.172C64.5019 2.97606 64.8447 2.86612 65.1978 2.85459C65.5508 2.84305 65.9001 2.93036 66.2061 3.10669C66.5122 3.28302 66.763 3.54135 66.9301 3.85255C67.0972 4.16375 67.1741 4.51545 67.152 4.868L63.732 58.208C63.7123 58.4968 63.6051 58.7728 63.4246 58.9991C63.2441 59.2254 62.9989 59.3913 62.7217 59.4748C62.4444 59.5582 62.1484 59.5551 61.873 59.466C61.5975 59.3769 61.3558 59.206 61.18 58.976L46.312 39.404C46.1217 39.1529 45.8832 38.9422 45.6106 38.7842C45.3379 38.6262 45.0365 38.5242 44.724 38.484L20.34 35.4C20.0534 35.3625 19.785 35.2386 19.5705 35.0448C19.356 34.8511 19.2055 34.5966 19.1391 34.3153C19.0727 34.034 19.0934 33.7391 19.1986 33.4699C19.3038 33.2006 19.4885 32.9698 19.728 32.808L64.208 3.172Z" fill="#D9D9D9"/>
</mask>
<g mask="url(#mask1_202_39)">
<path d="M16.092 34.92L67.404 1.044L45.556 38.884L16.092 34.924" fill="url(#paint0_linear_202_39)"/>
<path d="M63.72 62.416L67.404 1.044L45.56 38.884L63.72 62.416Z" fill="url(#paint1_linear_202_39)"/>
</g>
</g>
<path d="M182.02 10.06L170.488 4.508C169.837 4.19399 169.104 4.09037 168.391 4.2115C167.678 4.33262 167.021 4.6725 166.51 5.184L128.76 39.6C128.302 40.0156 128.028 40.5961 127.998 41.2139C127.968 41.8316 128.184 42.436 128.6 42.894C128.65 42.948 128.7 43 128.754 43.048L131.836 45.848C132.239 46.2145 132.757 46.4284 133.301 46.4525C133.845 46.4767 134.38 46.3095 134.814 45.98L180.284 11.5C180.627 11.2394 181.037 11.0798 181.466 11.0392C181.895 10.9987 182.327 11.0787 182.713 11.2703C183.1 11.462 183.425 11.7576 183.652 12.124C183.879 12.4903 184 12.9129 184 13.344V13.21C184 12.5518 183.814 11.907 183.464 11.3497C183.114 10.7925 182.613 10.3454 182.02 10.06Z" fill="#24BFA5"/>
<path d="M182.02 53.94L170.488 59.494C169.837 59.8071 169.104 59.9103 168.391 59.7892C167.679 59.6681 167.021 59.3287 166.51 58.818L128.76 24.4C128.302 23.9844 128.028 23.4039 127.998 22.7861C127.968 22.1684 128.184 21.564 128.6 21.106C128.65 21.052 128.7 21 128.754 20.952L131.836 18.152C132.239 17.7839 132.759 17.5691 133.304 17.545C133.849 17.5208 134.386 17.689 134.82 18.02L180.284 52.5C180.627 52.7606 181.037 52.9202 181.466 52.9608C181.895 53.0013 182.327 52.9213 182.713 52.7297C183.1 52.538 183.425 52.2424 183.652 51.876C183.879 51.5097 184 51.0871 184 50.656V50.8C183.998 51.4564 183.811 52.099 183.461 52.6543C183.111 53.2096 182.611 53.6551 182.02 53.94Z" fill="#009A7C"/>
<path d="M170.488 59.494C169.837 59.8071 169.104 59.9102 168.391 59.7892C167.679 59.6681 167.021 59.3287 166.51 58.818C166.797 59.1015 167.162 59.2939 167.558 59.3711C167.954 59.4483 168.364 59.4069 168.737 59.252C169.109 59.0972 169.428 58.8359 169.653 58.5007C169.877 58.1656 169.998 57.7715 170 57.368V6.632C170 6.22658 169.88 5.83017 169.655 5.49301C169.43 5.15585 169.11 4.89309 168.735 4.73802C168.361 4.58296 167.949 4.54256 167.551 4.62196C167.153 4.70135 166.788 4.89696 166.502 5.184C167.013 4.67268 167.67 4.33279 168.383 4.21133C169.096 4.08986 169.828 4.19284 170.48 4.506L182.01 10.05C182.605 10.334 183.107 10.7804 183.46 11.3378C183.812 11.8952 183.999 12.5407 184 13.2V50.8C184 51.4587 183.814 52.1041 183.464 52.6618C183.113 53.2195 182.612 53.6667 182.018 53.952L170.488 59.494Z" fill="#00B294"/>
<g clip-path="url(#clip0_202_39)">
<path d="M378.886 1.45536C377.06 2.6272 376.533 5.05472 377.71 6.87488C384.18 16.8941 385.707 24.4512 385.044 31.0739C382.366 43.7562 376.546 46.329 371.459 46.329C366.493 46.329 367.822 38.1555 371.556 35.7632C373.784 34.3718 376.638 33.4675 378.829 33.4675C381 33.4675 382.76 31.7133 382.76 29.5488C382.76 27.3837 381 25.6294 378.829 25.6294C376.27 25.6294 373.76 26.167 371.417 27.0822C371.896 24.8237 372.073 22.3827 371.454 19.7882C370.514 15.8483 367.81 12.0851 363.113 8.43712C362.291 7.79712 361.248 7.50976 360.213 7.63776C359.178 7.76576 358.237 8.29824 357.596 9.11872C356.263 10.8275 356.572 13.2902 358.286 14.6195C362.112 17.591 363.375 19.7907 363.807 21.6013C364.239 23.4118 363.892 25.3542 363.024 28.023C361.915 31.6198 360.627 34.8307 360.062 37.9098C359.785 39.4253 359.761 41.0746 359.689 42.3923C356.934 39.7069 355.856 36.1613 355.856 30.9805C355.855 28.816 354.095 27.0611 351.925 27.0618C349.756 27.0637 347.998 28.8173 347.998 30.9805C347.998 38.0563 350.067 44.7891 355.613 49.2806C360.633 54.0634 373.399 52.2957 373.399 59.9738C373.399 62.1408 376.571 63.1955 378.741 63.1955C380.967 63.1955 383.768 61.7075 383.768 59.9738C383.768 51.2621 392.949 45.9674 408.062 45.9904C410.233 45.9936 411.995 44.2406 411.998 42.0762C412.002 39.911 410.246 38.153 408.075 38.1491C407.041 38.1478 406.034 38.183 405.04 38.2419C406.73 34.2682 407.479 29.8931 407.325 25.1674C407.253 23.0035 405.437 21.3075 403.268 21.3779C401.096 21.4483 399.395 23.2614 399.466 25.4266C399.671 31.6141 399.439 37.1392 394.829 40.0518C393.518 40.8794 391.995 41.5974 390.55 41.5974C391.671 38.5459 392.519 35.3248 392.866 31.8528C393.087 29.6371 393.111 27.0048 392.858 24.96C392.466 21.792 391.992 18.199 393.195 15.4925C394.275 13.1616 396.695 12.1856 400.249 12.1856C402.418 12.1837 404.176 10.4294 404.176 8.26688C404.178 6.10176 402.42 4.3456 400.249 4.34368C394.968 4.34368 390.965 7.1232 388.695 10.4813C387.509 7.94688 386.064 5.33504 384.318 2.63168C383.754 1.75808 382.866 1.14432 381.847 0.92352C381.343 0.81408 380.822 0.80448 380.314 0.89536C379.806 0.98688 379.321 1.17696 378.886 1.45536Z" fill="url(#paint2_linear_202_39)"/>
</g>
<g clip-path="url(#clip1_202_39)">
<path d="M490.886 1.45536C489.06 2.6272 488.533 5.05472 489.71 6.87488C496.18 16.8941 497.707 24.4512 497.044 31.0739C494.366 43.7562 488.546 46.329 483.459 46.329C478.493 46.329 479.822 38.1555 483.556 35.7632C485.784 34.3718 488.638 33.4675 490.829 33.4675C493 33.4675 494.76 31.7133 494.76 29.5488C494.76 27.3837 493 25.6294 490.829 25.6294C488.27 25.6294 485.76 26.167 483.417 27.0822C483.896 24.8237 484.073 22.3827 483.454 19.7882C482.514 15.8483 479.81 12.0851 475.113 8.43712C474.291 7.79712 473.248 7.50976 472.213 7.63776C471.178 7.76576 470.237 8.29824 469.596 9.11872C468.263 10.8275 468.572 13.2902 470.286 14.6195C474.112 17.591 475.375 19.7907 475.807 21.6013C476.239 23.4118 475.892 25.3542 475.024 28.023C473.915 31.6198 472.627 34.8307 472.062 37.9098C471.785 39.4253 471.761 41.0746 471.689 42.3923C468.934 39.7069 467.856 36.1613 467.856 30.9805C467.855 28.816 466.095 27.0611 463.925 27.0618C461.756 27.0637 459.998 28.8173 459.998 30.9805C459.998 38.0563 462.067 44.7891 467.613 49.2806C472.633 54.0634 485.399 52.2957 485.399 59.9738C485.399 62.1408 488.571 63.1955 490.741 63.1955C492.967 63.1955 495.768 61.7075 495.768 59.9738C495.768 51.2621 504.949 45.9674 520.062 45.9904C522.233 45.9936 523.995 44.2406 523.998 42.0762C524.002 39.911 522.246 38.153 520.075 38.1491C519.041 38.1478 518.034 38.183 517.04 38.2419C518.73 34.2682 519.479 29.8931 519.325 25.1674C519.253 23.0035 517.437 21.3075 515.268 21.3779C513.096 21.4483 511.395 23.2614 511.466 25.4266C511.671 31.6141 511.439 37.1392 506.829 40.0518C505.518 40.8794 503.995 41.5974 502.55 41.5974C503.671 38.5459 504.519 35.3248 504.866 31.8528C505.087 29.6371 505.111 27.0048 504.858 24.96C504.466 21.792 503.992 18.199 505.195 15.4925C506.275 13.1616 508.695 12.1856 512.249 12.1856C514.418 12.1837 516.176 10.4294 516.176 8.26688C516.178 6.10176 514.42 4.3456 512.249 4.34368C506.968 4.34368 502.965 7.1232 500.695 10.4813C499.509 7.94688 498.064 5.33504 496.318 2.63168C495.754 1.75808 494.866 1.14432 493.847 0.92352C493.343 0.81408 492.822 0.80448 492.314 0.89536C491.806 0.98688 491.321 1.17696 490.886 1.45536Z" fill="url(#paint3_linear_202_39)"/>
</g>
<path d="M294.02 10.06L282.488 4.508C281.837 4.19399 281.104 4.09037 280.391 4.2115C279.678 4.33262 279.021 4.6725 278.51 5.184L240.76 39.6C240.302 40.0156 240.028 40.5961 239.998 41.2139C239.968 41.8316 240.184 42.436 240.6 42.894C240.65 42.948 240.7 43 240.754 43.048L243.836 45.848C244.239 46.2145 244.757 46.4284 245.301 46.4525C245.845 46.4767 246.38 46.3095 246.814 45.98L292.284 11.5C292.627 11.2394 293.037 11.0798 293.466 11.0392C293.895 10.9987 294.327 11.0787 294.713 11.2703C295.1 11.462 295.425 11.7576 295.652 12.124C295.879 12.4903 296 12.9129 296 13.344V13.21C296 12.5518 295.814 11.907 295.464 11.3497C295.114 10.7925 294.613 10.3454 294.02 10.06Z" fill="#0065A9"/>
<path d="M294.02 53.94L282.488 59.494C281.837 59.8071 281.104 59.9103 280.391 59.7892C279.679 59.6681 279.021 59.3287 278.51 58.818L240.76 24.4C240.302 23.9844 240.028 23.4039 239.998 22.7861C239.968 22.1684 240.184 21.564 240.6 21.106C240.65 21.052 240.7 21 240.754 20.952L243.836 18.152C244.239 17.7839 244.759 17.5691 245.304 17.545C245.849 17.5208 246.386 17.689 246.82 18.02L292.284 52.5C292.627 52.7606 293.037 52.9202 293.466 52.9608C293.895 53.0013 294.327 52.9213 294.713 52.7297C295.1 52.538 295.425 52.2424 295.652 51.876C295.879 51.5097 296 51.0871 296 50.656V50.8C295.998 51.4564 295.811 52.099 295.461 52.6543C295.111 53.2096 294.611 53.6551 294.02 53.94Z" fill="#007ACC"/>
<path d="M282.488 59.494C281.837 59.8071 281.104 59.9102 280.391 59.7892C279.679 59.6681 279.021 59.3287 278.51 58.818C278.797 59.1015 279.162 59.2939 279.558 59.3711C279.954 59.4483 280.364 59.4069 280.737 59.252C281.109 59.0972 281.428 58.8359 281.653 58.5007C281.877 58.1656 281.998 57.7715 282 57.368V6.632C282 6.22658 281.88 5.83017 281.655 5.49301C281.43 5.15585 281.11 4.89309 280.735 4.73802C280.361 4.58296 279.949 4.54256 279.551 4.62196C279.153 4.70135 278.788 4.89696 278.502 5.184C279.013 4.67268 279.67 4.33279 280.383 4.21133C281.096 4.08986 281.828 4.19284 282.48 4.506L294.01 10.05C294.605 10.334 295.107 10.7804 295.46 11.3378C295.812 11.8952 295.999 12.5407 296 13.2V50.8C296 51.4587 295.814 52.1041 295.464 52.6618C295.113 53.2195 294.612 53.6667 294.018 53.952L282.488 59.494Z" fill="#1F9CF0"/>
<defs>
<linearGradient id="paint0_linear_202_39" x1="41.748" y1="1.044" x2="41.748" y2="38.884" gradientUnits="userSpaceOnUse">
<stop stop-color="white"/>
<stop offset="1" stop-color="white" stop-opacity="0.4"/>
</linearGradient>
<linearGradient id="paint1_linear_202_39" x1="56.48" y1="1.044" x2="56.48" y2="62.416" gradientUnits="userSpaceOnUse">
<stop stop-color="white" stop-opacity="0.4"/>
<stop offset="1" stop-color="white"/>
</linearGradient>
<linearGradient id="paint2_linear_202_39" x1="347.998" y1="0.833281" x2="409.865" y2="60.5267" gradientUnits="userSpaceOnUse">
<stop stop-color="#62A0EA"/>
<stop offset="1" stop-color="#1A5FB4"/>
</linearGradient>
<linearGradient id="paint3_linear_202_39" x1="459.998" y1="0.833281" x2="521.865" y2="60.5267" gradientUnits="userSpaceOnUse">
<stop stop-color="#009A7C"/>
<stop offset="1" stop-color="#24BFA5"/>
</linearGradient>
<clipPath id="clip0_202_39">
<rect width="64" height="64" fill="white" transform="translate(348)"/>
</clipPath>
<clipPath id="clip1_202_39">
<rect width="64" height="64" fill="white" transform="translate(460)"/>
</clipPath>
</defs>
</svg>
