<svg xmlns="http://www.w3.org/2000/svg" width="16" height="16" fill="none" viewBox="0 0 16 16"><g clip-path="url(#a)"><path fill="url(#b)" d="M7.722.364a.978.978 0 0 0-.294 1.355c1.617 2.505 1.999 4.394 1.833 6.05-.67 3.17-2.125 3.813-3.396 3.813-1.242 0-.91-2.043.024-2.641.557-.348 1.27-.574 1.818-.574a.981.981 0 0 0 .983-.98c0-.541-.44-.98-.983-.98a5.1 5.1 0 0 0-1.853.364c.12-.565.164-1.175.01-1.824-.235-.985-.912-1.926-2.086-2.838a.984.984 0 0 0-1.379.17.978.978 0 0 0 .173 1.376c.956.743 1.272 1.293 1.38 1.745.108.453.021.939-.196 1.606-.277.899-.6 1.702-.74 2.472-.07.378-.076.79-.094 1.12-.688-.671-.958-1.558-.958-2.853a.981.981 0 0 0-1.964 0c0 1.77.517 3.452 1.903 4.575 1.255 1.196 4.447.754 4.447 2.673 0 .542.793.806 1.335.806.557 0 1.257-.372 1.257-.806 0-2.177 2.295-3.501 6.074-3.495a.981.981 0 1 0 .003-1.96c-.259-.001-.51.008-.759.023.423-.994.61-2.088.571-3.27a.982.982 0 0 0-1.014-.946.981.981 0 0 0-.95 1.012c.05 1.547-.007 2.928-1.16 3.656-.327.207-.708.386-1.07.386.28-.762.493-1.568.58-2.436a8.369 8.369 0 0 0-.002-1.723c-.098-.792-.217-1.69.084-2.367.27-.583.875-.827 1.763-.827a.981.981 0 1 0 0-1.96c-1.32 0-2.32.695-2.888 1.534A16.568 16.568 0 0 0 9.08.658.982.982 0 0 0 7.722.364Z"/></g><defs><linearGradient id="b" x1="0" x2="15.466" y1=".208" y2="15.132" gradientUnits="userSpaceOnUse"><stop stop-color="#009A7C"/><stop offset="1" stop-color="#24BFA5"/></linearGradient><clipPath id="a"><path fill="#fff" d="M0 0h16v16H0z"/></clipPath></defs></svg>