<svg xmlns="http://www.w3.org/2000/svg" width="16" height="16" fill="none" viewBox="0 0 16 16"><path fill="#24BFA5" d="m14.505 2.515-2.883-1.388a.871.871 0 0 0-.995.169L1.19 9.9a.583.583 0 0 0-.001.862l.77.7a.583.583 0 0 0 .745.033l11.367-8.62a.58.58 0 0 1 .929.461v-.034a.874.874 0 0 0-.495-.787Z"/><path fill="#009A7C" d="m14.505 13.485-2.883 1.389a.873.873 0 0 1-.995-.17L1.19 6.1a.583.583 0 0 1-.001-.862l.77-.7a.583.583 0 0 1 .746-.033l11.366 8.62a.58.58 0 0 0 .929-.46v.035a.874.874 0 0 1-.495.785Z"/><path fill="#00B294" d="M11.622 14.874a.872.872 0 0 1-.995-.17.512.512 0 0 0 .873-.362V1.658a.512.512 0 0 0-.874-.362.872.872 0 0 1 .994-.17l2.883 1.387A.874.874 0 0 1 15 3.3v9.4a.875.875 0 0 1-.495.788l-2.883 1.386Z"/></svg>