<svg width="16" height="16" viewBox="0 0 16 16" fill="none" xmlns="http://www.w3.org/2000/svg">
<g clip-path="url(#clip0_2_37)">
<path d="M7.72159 0.363923C7.26495 0.656883 7.13327 1.26376 7.42751 1.7188C9.04495 4.2236 9.42671 6.11288 9.26111 7.76856C8.59167 10.9391 7.13647 11.5823 5.86479 11.5823C4.62319 11.5823 4.95567 9.53896 5.88895 8.94088C6.44607 8.59304 7.15967 8.36696 7.70735 8.36696C8.25007 8.36696 8.69007 7.9284 8.69007 7.38728C8.69007 6.846 8.25007 6.40744 7.70735 6.40744C7.06767 6.40744 6.44015 6.54184 5.85439 6.77064C5.97407 6.206 6.01823 5.59576 5.86351 4.94712C5.62863 3.96216 4.95247 3.02136 3.77839 2.10936C3.57279 1.94936 3.31199 1.87752 3.05327 1.90952C2.79455 1.94152 2.55919 2.07464 2.39903 2.27976C2.06591 2.70696 2.14303 3.32264 2.57151 3.65496C3.52799 4.39784 3.84383 4.94776 3.95183 5.4004C4.05983 5.85304 3.97295 6.33864 3.75599 7.00584C3.47871 7.90504 3.15679 8.70776 3.01567 9.47752C2.94623 9.8564 2.94031 10.2687 2.92239 10.5982C2.23359 9.9268 1.96399 9.0404 1.96399 7.7452C1.96383 7.20408 1.52383 6.76536 0.981272 6.76552C0.439032 6.766 -0.000328281 7.2044 -0.000488281 7.7452C-0.000488281 9.51416 0.516792 11.1974 1.90319 12.3202C3.15823 13.5159 6.34975 13.074 6.34975 14.9935C6.34975 15.5353 7.14271 15.799 7.68527 15.799C8.24175 15.799 8.94207 15.427 8.94207 14.9935C8.94207 12.8156 11.2373 11.4919 15.0157 11.4977C15.5584 11.4985 15.9987 11.0602 15.9995 10.5191C16.0005 9.97784 15.5614 9.53832 15.0187 9.53736C14.7603 9.53704 14.5085 9.54584 14.2602 9.56056C14.6826 8.56712 14.8699 7.47336 14.8312 6.29192C14.8133 5.75096 14.3592 5.32696 13.817 5.34456C13.2741 5.36216 12.8488 5.81544 12.8666 6.35672C12.9178 7.9036 12.8598 9.28488 11.7074 10.013C11.3797 10.2199 10.9987 10.3994 10.6374 10.3994C10.9179 9.63656 11.1298 8.83128 11.2165 7.96328C11.2718 7.40936 11.2778 6.75128 11.2146 6.24008C11.1165 5.44808 10.9981 4.54984 11.2987 3.8732C11.5688 3.29048 12.1739 3.04648 13.0624 3.04648C13.6046 3.046 14.044 2.60744 14.0442 2.0668C14.0445 1.52552 13.605 1.08648 13.0624 1.086C11.7421 1.086 10.7413 1.78088 10.1739 2.6204C9.87727 1.9868 9.51599 1.33384 9.07951 0.658003C8.93855 0.439603 8.71647 0.286163 8.46191 0.230963C8.33583 0.203603 8.20559 0.201203 8.07855 0.223923C7.95151 0.246803 7.83023 0.294323 7.72159 0.363923Z" fill="url(#paint0_linear_2_37)"/>
</g>
<defs>
<linearGradient id="paint0_linear_2_37" x1="-0.000488595" y1="0.208403" x2="15.4664" y2="15.1318" gradientUnits="userSpaceOnUse">
<stop stop-color="#62A0EA"/>
<stop offset="1" stop-color="#1A5FB4"/>
</linearGradient>
<clipPath id="clip0_2_37">
<rect width="16" height="16" fill="white"/>
</clipPath>
</defs>
</svg>
