<svg width="16" height="16" viewBox="0 0 16 16" fill="none" xmlns="http://www.w3.org/2000/svg">
<path d="M14.505 2.51496L11.622 1.12696C11.4592 1.04846 11.276 1.02256 11.0978 1.05284C10.9196 1.08312 10.7553 1.16809 10.6275 1.29596L1.19001 9.89996C1.07551 10.0039 1.00697 10.149 0.999467 10.3034C0.991965 10.4579 1.04612 10.609 1.15001 10.7235C1.16251 10.737 1.17501 10.75 1.18851 10.762L1.95901 11.462C2.0597 11.5536 2.18929 11.6071 2.3253 11.6131C2.4613 11.6191 2.59512 11.5773 2.70351 11.495L14.071 2.87496C14.1569 2.80981 14.2592 2.76992 14.3665 2.75977C14.4738 2.74963 14.5818 2.76964 14.6784 2.81755C14.7749 2.86546 14.8562 2.93937 14.913 3.03096C14.9698 3.12255 15 3.22818 15 3.33596V3.30246C15 3.13791 14.9535 2.97671 14.866 2.8374C14.7784 2.69808 14.6533 2.58632 14.505 2.51496Z" fill="#0065A9"/>
<path d="M14.505 13.4851L11.622 14.8736C11.4592 14.9519 11.276 14.9776 11.0979 14.9474C10.9197 14.9171 10.7554 14.8323 10.6275 14.7046L1.19001 6.10007C1.07551 5.99617 1.00697 5.85104 0.999467 5.69661C0.991965 5.54217 1.04612 5.39108 1.15001 5.27657C1.16251 5.26307 1.17501 5.25007 1.18851 5.23807L1.95901 4.53807C2.0598 4.44605 2.18969 4.39234 2.32603 4.38631C2.46237 4.38028 2.5965 4.42231 2.70501 4.50507L14.071 13.1251C14.1569 13.1902 14.2592 13.2301 14.3665 13.2403C14.4738 13.2504 14.5818 13.2304 14.6784 13.1825C14.7749 13.1346 14.8562 13.0607 14.913 12.9691C14.9698 12.8775 15 12.7719 15 12.6641V12.7001C14.9995 12.8642 14.9528 13.0248 14.8652 13.1637C14.7777 13.3025 14.6529 13.4139 14.505 13.4851Z" fill="#007ACC"/>
<path d="M11.622 14.8736C11.4591 14.9519 11.276 14.9777 11.0978 14.9474C10.9197 14.9171 10.7553 14.8323 10.6275 14.7046C10.6993 14.7755 10.7904 14.8236 10.8894 14.8429C10.9885 14.8622 11.091 14.8518 11.1841 14.8131C11.2773 14.7744 11.357 14.7091 11.4131 14.6253C11.4693 14.5415 11.4995 14.443 11.5 14.3421V1.65809C11.5001 1.55674 11.4701 1.45764 11.4138 1.37335C11.3575 1.28905 11.2775 1.22336 11.1838 1.1846C11.0902 1.14583 10.9871 1.13573 10.8877 1.15558C10.7883 1.17543 10.6971 1.22433 10.6255 1.29609C10.7533 1.16826 10.9176 1.08329 11.0957 1.05292C11.2739 1.02256 11.4571 1.0483 11.62 1.12659L14.5025 2.51259C14.6512 2.58359 14.7769 2.6952 14.8649 2.83454C14.9529 2.97388 14.9998 3.13528 15 3.30009V12.7001C15 12.8648 14.9535 13.0261 14.8659 13.1655C14.7782 13.305 14.6529 13.4168 14.5045 13.4881L11.622 14.8736Z" fill="#1F9CF0"/>
</svg>
